<?xml version="1.0" standalone="no"?><!DOCTYPE svg PUBLIC "-//W3C//DTD SVG 1.1//EN" "http://www.w3.org/Graphics/SVG/1.1/DTD/svg11.dtd"><svg t="1626077722935" class="icon" viewBox="0 0 1024 1024" version="1.1" xmlns="http://www.w3.org/2000/svg" p-id="5226" xmlns:xlink="http://www.w3.org/1999/xlink" width="200" height="200"><defs><style type="text/css"></style></defs><path d="M1022.92407 83.870009c-2.789793 94.387994-23.248274 185.056264-57.190755 272.934741-40.451997 105.0822-100.432545 197.610332-183.661367 274.329637a23.71324 23.71324 0 0 0-7.904413 21.853378c2.789793 28.362895 5.11462 56.725789 7.904413 85.088684 6.974482 66.025099-16.273792 119.961095-69.744823 158.088265-57.190755 40.916963-116.241372 79.044133-175.291988 117.636268a55.09841 55.09841 0 0 1-86.948546-41.846894c-4.649655-50.681238-8.834344-101.362476-12.089103-152.043714-1.394896-25.573102-0.929931-25.573102-25.573102-28.82786-65.095168-8.834344-116.241372-39.522066-151.113783-95.78289a218.998744 218.998744 0 0 1-30.222756-94.387994c-0.929931-10.229241-5.11462-12.554068-14.41393-13.019033-52.5411-2.789793-105.547165-6.044551-158.088266-10.229241-43.706756-3.254758-66.025099-49.286342-42.311859-87.878477 16.273792-26.967998 33.942481-53.471031 51.146204-80.439029 18.133654-28.82786 36.732273-57.65572 54.865927-86.483581 33.477515-52.5411 82.298891-80.903995 144.139301-81.833925 35.337377 0 71.139719 6.044551 106.477096 9.764275 6.974482 0.464965 11.624137 0 16.273792-5.579586 82.298891-92.063166 184.591298-154.368541 300.367704-196.215435C755.10395 25.284358 822.05898 9.940497 890.873872 2.966015c34.872411-3.719724 69.744823-4.649655 104.617234 1.394896 19.063585 3.719724 19.993516 4.184689 22.783309 22.783309 2.789793 19.063585 5.579586 37.662204 4.649655 56.725789z m-199.005228 232.482744c0.929931-62.305375-50.681238-115.776406-112.056682-116.706337-63.700272-0.929931-118.566199 45.101652-120.426061 117.636268-1.394896 59.980548 53.471031 114.846475 114.381509 115.31144 64.630203 0.464965 117.171303-51.146203 118.101234-116.241371z" p-id="5227" fill="#ffffff"></path><path d="M139.489646 671.586384c15.808827 0 24.178205 6.974482 29.757791 22.783309 21.853378 62.305375 61.84041 109.731855 119.49613 142.279439 13.019034 6.974482 26.038067 13.019034 39.987032 17.668688 25.108136 8.369379 30.687722 33.01255 12.089102 51.611169-27.432964 27.897929-55.330893 55.330893-82.763856 82.763857-9.29931 9.29931-19.063585 13.483999-31.617653 8.834344-13.019034-4.649655-19.063585-14.41393-19.993516-27.897929-0.464965-8.369379 0-17.203723-0.464966-25.573102-0.464965-15.808827-0.464965-15.808827-14.878895-11.159172l-92.528132 30.687723c-9.29931 3.254758-18.133654 4.184689-26.967998-0.929931-13.019034-7.439448-18.133654-20.458481-12.554068-36.732274 10.229241-31.617653 20.923447-63.235306 31.617653-94.852959 4.649655-13.483999 4.184689-13.948965-10.694206-14.41393-8.834344 0-17.668688 0-26.967999-0.464966-12.089103 0-23.248274-7.439448-26.967998-19.063585-4.649655-12.089103-1.859862-22.318343 6.974483-31.152687 28.82786-28.82786 57.65572-57.65572 86.018614-86.483581a28.362895 28.362895 0 0 1 20.458482-7.904413z" p-id="5228" fill="#ffffff"></path></svg>